{"title":"+18 Friday the 13th The Final Chapter 1984 BRRIP ESU 480p x264 D","uid":10131631,"size":275667226,"categoryP":"video","categoryS":"movies","magnet":"?xt=urn:btih:512262acaca60de6268d8f33c0b654500c459025&amp;dn=%2B18+Friday+the+13th+The+Final+Chapter+1984+BRRIP+ESU+480p+x264+D&amp;tr=udp%3A%2F%2Ftracker.openbittorrent.com%3A80&amp;tr=udp%3A%2F%2Fopen.demonii.com%3A1337&amp;tr=udp%3A%2F%2Ftracker.coppersurfer.tk%3A6969&amp;tr=udp%3A%2F%2Fexodus.desync.com%3A6969","seeders":1,"leechers":1,"uploader":"jatt13","files":1,"time":1399889353,"description":"Video\nID                             : 1\nFormat                         : AVC\nFormat/Info                    : Advanced Video Codec\nFormat profile                 : &lt;a class=&quot;__cf_email__&quot; href=&quot;/cdn-cgi/l/email-protection&quot; data-cfemail=&quot;a9e4c8c0c7e9e59d8799&quot;&gt;[email&amp;#160;protected]&lt;/a&gt;&lt;script cf-hash='f9e31' type=&quot;text/javascript&quot;&gt;\n/* &lt;![CDATA[ */!function(){try{var t=&quot;currentScript&quot;in document?document.currentScript:function(){for(var t=document.getElementsByTagName(&quot;script&quot;),e=t.length;e--;)if(t[e].getAttribute(&quot;cf-hash&quot;))return t[e]}();if(t&amp;&amp;t.previousSibling){var e,r,n,i,c=t.previousSibling,a=c.getAttribute(&quot;data-cfemail&quot;);if(a){for(e=&quot;&quot;,r=parseInt(a.substr(0,2),16),n=2;a.length-n;n+=2)i=parseInt(a.substr(n,2),16)^r,e+=String.fromCharCode(i);e=document.createTextNode(e),c.parentNode.replaceChild(e,c)}}}catch(u){}}();/* ]]&gt; */&lt;/script&gt;\nFormat settings, CABAC         : Yes\nFormat settings, ReFrames      : 4 frames\nCodec ID                       : V_MPEG4/ISO/AVC\nDuration                       : 1h 27mn\nBit rate                       : 300 Kbps\nWidth                          : 720 pixels\nHeight                         : 384 pixels\nDisplay aspect ratio           : 1.85:1\nFrame rate mode                : Constant\nFrame rate                     : 25.000 fps\nColor space                    : YUV\nChroma subsampling             : 4:2:0\nBit depth                      : 8 bits\nScan type                      : Progressive\nBits/(Pixel*Frame)             : 0.043\nStream size                    : 182 MiB (69%)\nTitle                          : GOPI SAHI\nWriting library                : x264 core 130 r2273 b3065e6\nLanguage                       : English\nDefault                        : Yes\nForced                         : No\nColor primaries                : BT.709\nTransfer characteristics       : BT.709\nMatrix coefficients            : BT.709\n\nAudio #1\nID                             : 3\nFormat                         : MPEG Audio\nFormat version                 : Version 1\nFormat profile                 : Layer 3\nMode                           : Joint stereo\nMode extension                 : MS Stereo\nCodec ID                       : A_MPEG/L3\nCodec ID/Hint                  : MP3\nDuration                       : 1h 27mn\nBit rate mode                  : Constant\nBit rate                       : 64.0 Kbps\nChannel count                  : 2 channels\nSampling rate                  : 44.1 KHz\nCompression mode               : Lossy\nStream size                    : 40.1 MiB (15%)\nTitle                          : GOPI SAHI\nWriting library                : LAMEUUULAME3.98.2\nLanguage                       : Hindi\nDefault                        : Yes\nForced                         : No\n\nAudio #2\nID                             : 4\nFormat                         : MPEG Audio\nFormat version                 : Version 1\nFormat profile                 : Layer 3\nMode                           : Joint stereo\nMode extension                 : MS Stereo\nCodec ID                       : A_MPEG/L3\nCodec ID/Hint                  : MP3\nDuration                       : 1h 27mn\nBit rate mode                  : Constant\nBit rate                       : 56.0 Kbps\nChannel count                  : 2 channels\nSampling rate                  : 44.1 KHz\nCompression mode               : Lossy\nStream size                    : 35.1 MiB (13%)\nTitle                          : GOPI SAHI\nWriting library                : LAME3.98.2\nLanguage                       : English\nDefault                        : No\nForced                         : No\n[IMG]http://i.imgur.com/OhkQoZa.jpg[/IMG]\n[IMG]http://i.imgur.com/S4u9JNB.jpg[/IMG]\n[IMG]http://i.imgur.com/fzEaUj5.jpg[/IMG]","torrent":{"xt":"urn:btih:512262acaca60de6268d8f33c0b654500c459025","amp;dn":"%2B18+Friday+the+13th+The+Final+Chapter+1984+BRRIP+ESU+480p+x264+D","amp;tr":["udp%3A%2F%2Ftracker.openbittorrent.com%3A80","udp%3A%2F%2Fopen.demonii.com%3A1337","udp%3A%2F%2Ftracker.coppersurfer.tk%3A6969","udp%3A%2F%2Fexodus.desync.com%3A6969"],"infoHash":"512262acaca60de6268d8f33c0b654500c459025","infoHashBuffer":{"type":"Buffer","data":[81,34,98,172,172,166,13,230,38,141,143,51,192,182,84,80,12,69,144,37]},"announce":[],"urlList":[]}}